<svg width="28" height="27" viewBox="0 0 28 27" fill="none" xmlns="http://www.w3.org/2000/svg">
<path d="M24.7464 3.70917L15.6018 23.661C15.5253 23.8281 15.3955 23.9652 15.2328 24.0507C15.0702 24.1363 14.8837 24.1655 14.7026 24.1338C14.5216 24.1021 14.3561 24.0113 14.2322 23.8756C14.1082 23.7399 14.0327 23.5669 14.0175 23.3838L13.2443 14.1089L3.96947 13.3358C3.78629 13.3205 3.61332 13.245 3.47761 13.1211C3.3419 12.9971 3.2511 12.8316 3.21941 12.6506C3.18773 12.4695 3.21695 12.2831 3.3025 12.1204C3.38804 11.9577 3.5251 11.8279 3.69223 11.7514L23.6441 2.60683C23.7983 2.53615 23.9705 2.51435 24.1375 2.54436C24.3045 2.57438 24.4583 2.65477 24.5782 2.77474C24.6982 2.89471 24.7786 3.04852 24.8086 3.21551C24.8386 3.3825 24.8168 3.55468 24.7461 3.70892L24.7464 3.70917Z" fill="#080809"/>
</svg>
