<svg width="168" height="31" viewBox="0 0 168 31" fill="none" xmlns="http://www.w3.org/2000/svg">
<path d="M23.2523 2.07587V8.25536H15.8052V30.0024H8.04124V8.25536H0.673401V2.07587H23.2523Z" fill="black"/>
<path d="M33.8887 11.7016C34.7602 10.434 35.8165 9.43051 37.0577 8.69109C38.2989 7.95166 39.6325 7.58195 41.0585 7.58195V15.8609H38.8799C37.1897 15.8609 35.9354 16.191 35.1167 16.8512C34.2981 17.5114 33.8887 18.6601 33.8887 20.2974V30.0024H26.1248V7.78001H33.8887V11.7016Z" fill="black"/>
<path d="M42.5743 18.8714C42.5743 16.5739 42.9836 14.5669 43.8023 12.8504C44.6473 11.1338 45.7829 9.81343 47.2089 8.88915C48.6614 7.96487 50.2722 7.50273 52.0416 7.50273C53.5732 7.50273 54.8937 7.80642 56.0028 8.41381C57.1119 9.02119 57.9702 9.83984 58.5776 10.8698V7.78001H66.3415V30.0024H58.5776V26.9126C57.9702 27.9426 57.0987 28.7612 55.9632 29.3686C54.854 29.976 53.5468 30.2797 52.0416 30.2797C50.2722 30.2797 48.6614 29.8175 47.2089 28.8932C45.7829 27.969 44.6473 26.6486 43.8023 24.932C42.9836 23.1891 42.5743 21.1689 42.5743 18.8714ZM58.5776 18.8714C58.5776 17.4454 58.1815 16.323 57.3892 15.5044C56.6234 14.6857 55.6727 14.2764 54.5371 14.2764C53.3752 14.2764 52.4113 14.6857 51.6455 15.5044C50.8796 16.2966 50.4967 17.4189 50.4967 18.8714C50.4967 20.2974 50.8796 21.433 51.6455 22.278C52.4113 23.0967 53.3752 23.506 54.5371 23.506C55.6727 23.506 56.6234 23.0967 57.3892 22.278C58.1815 21.4594 58.5776 20.3238 58.5776 18.8714Z" fill="black"/>
<path d="M81.4214 22.6741L85.5806 7.78001H93.8596L86.2144 30.0024H76.5491L68.9039 7.78001H77.1829L81.4214 22.6741Z" fill="black"/>
<path d="M117.722 18.6337C117.722 19.2411 117.683 19.8485 117.604 20.4559H102.908C102.987 21.6706 103.317 22.5817 103.898 23.1891C104.505 23.7701 105.271 24.0606 106.195 24.0606C107.489 24.0606 108.414 23.4796 108.968 22.3176H117.247C116.904 23.8493 116.23 25.2225 115.227 26.4373C114.25 27.6257 113.009 28.5631 111.503 29.2498C109.998 29.9364 108.334 30.2797 106.512 30.2797C104.32 30.2797 102.366 29.8175 100.65 28.8932C98.9595 27.969 97.6259 26.6486 96.6488 24.932C95.6981 23.2155 95.2228 21.1953 95.2228 18.8714C95.2228 16.5475 95.6981 14.5405 96.6488 12.8504C97.5995 11.1338 98.9199 9.81343 100.61 8.88915C102.327 7.96487 104.294 7.50273 106.512 7.50273C108.704 7.50273 110.645 7.95166 112.335 8.84954C114.025 9.74741 115.346 11.0414 116.296 12.7315C117.247 14.3952 117.722 16.3626 117.722 18.6337ZM109.8 16.6927C109.8 15.742 109.483 15.0026 108.849 14.4745C108.216 13.9199 107.423 13.6426 106.473 13.6426C105.522 13.6426 104.743 13.9067 104.135 14.4348C103.528 14.9366 103.132 15.6892 102.947 16.6927H109.8Z" fill="black"/>
<path d="M128.664 0.689453V30.0024H120.9V0.689453H128.664Z" fill="black"/>
<path d="M140.849 0.689453V30.0024H133.085V0.689453H140.849Z" fill="black"/>
<path d="M155.609 30.2797C153.391 30.2797 151.397 29.8175 149.628 28.8932C147.885 27.969 146.512 26.6486 145.508 24.932C144.505 23.2155 144.003 21.1953 144.003 18.8714C144.003 16.5739 144.505 14.5669 145.508 12.8504C146.538 11.1338 147.924 9.81343 149.667 8.88915C151.437 7.96487 153.431 7.50273 155.649 7.50273C157.867 7.50273 159.848 7.96487 161.591 8.88915C163.36 9.81343 164.746 11.1338 165.75 12.8504C166.78 14.5669 167.295 16.5739 167.295 18.8714C167.295 21.1689 166.78 23.1891 165.75 24.932C164.746 26.6486 163.36 27.969 161.591 28.8932C159.821 29.8175 157.827 30.2797 155.609 30.2797ZM155.609 23.5456C156.692 23.5456 157.59 23.1495 158.303 22.3573C159.042 21.5386 159.412 20.3766 159.412 18.8714C159.412 17.3661 159.042 16.2174 158.303 15.4251C157.59 14.6329 156.705 14.2368 155.649 14.2368C154.592 14.2368 153.708 14.6329 152.995 15.4251C152.282 16.2174 151.925 17.3661 151.925 18.8714C151.925 20.4031 152.269 21.565 152.955 22.3573C153.642 23.1495 154.526 23.5456 155.609 23.5456Z" fill="black"/>
</svg>
